<svg width="127" height="109" viewBox="0 0 127 109" fill="none" xmlns="http://www.w3.org/2000/svg">
<path fill-rule="evenodd" clip-rule="evenodd" d="M65.6042 90.0363C75.4604 89.0708 83.78 80.4301 87.3464 68.4838C87.3777 68.3716 87.3847 68.2539 87.3668 68.1388C87.3489 68.0236 87.3066 67.9137 87.2428 67.8163C87.1789 67.719 87.095 67.6365 86.9966 67.5746C86.8982 67.5126 86.7878 67.4725 86.6726 67.457C79.9777 66.4373 72.8379 65.8598 65.5161 65.7799C65.407 65.7771 65.2984 65.7959 65.1965 65.8354C65.0947 65.8748 65.0017 65.9341 64.9228 66.0098C64.8439 66.0855 64.7808 66.1761 64.7369 66.2764C64.6931 66.3767 64.6695 66.4847 64.6675 66.5942V89.232C64.6675 89.7183 65.1053 90.0876 65.6056 90.0377M74.7241 21.8279C81.4247 25.9407 86.694 33.8526 89.1587 43.637C89.1985 43.8019 89.2994 43.9454 89.441 44.0382C89.5826 44.1309 89.7541 44.166 89.9206 44.1362C99.5607 42.2965 108.091 39.4244 114.619 35.7294C114.716 35.6729 114.797 35.5936 114.856 35.4984C114.915 35.4032 114.95 35.295 114.957 35.1832C114.965 35.0715 114.945 34.9595 114.9 34.8571C114.855 34.7547 114.785 34.6649 114.698 34.5956C112.651 33.0216 110.494 31.5984 108.243 30.3373C104.867 28.4321 101.171 26.7764 97.2296 25.3788V20.0281C97.2296 19.9968 97.2225 19.9682 97.2211 19.9369V17.6323C97.2211 14.5405 99.6716 12.0263 102.686 12.0263H106.962C106.985 12.0263 107.005 12.0206 107.026 12.0192C107.049 12.0192 107.069 12.0263 107.091 12.0263C107.933 12.0263 108.612 11.3276 108.612 10.4648V2.03374C108.614 1.17095 107.933 0.472168 107.093 0.472168H77.5613C76.7198 0.472168 76.0375 1.17095 76.0375 2.03374V10.4648C76.0375 11.3276 76.7198 12.0263 77.5613 12.0263C77.6039 12.0263 77.6437 12.0178 77.6864 12.0121C77.729 12.0178 77.7702 12.0263 77.8143 12.0263H82.0914C85.1048 12.0263 87.5553 14.5405 87.5553 17.6309V22.5908C83.4582 21.6597 79.3071 20.9857 75.1264 20.5729C74.4256 20.503 74.12 21.4571 74.7241 21.8279ZM94.1764 17.6323V20.5358C94.1764 20.5672 94.1835 20.5957 94.1849 20.6271V24.3706C93.8494 24.2665 93.5154 24.1609 93.1757 24.0597V16.6012C93.4713 13.6863 95.413 11.2719 98.0242 10.3379C96.8357 11.1439 95.8632 12.2308 95.1921 13.5029C94.5211 14.775 94.1723 16.1931 94.1764 17.6323ZM105.569 3.59388V8.66933H100.409C96.8486 8.66933 93.7983 10.9311 92.5389 14.1241C91.2795 10.9297 88.2291 8.66933 84.6698 8.66933H79.0836V3.59388H105.569ZM90.5986 20.5487L90.6 20.5358V17.6323C90.6 14.4607 88.937 11.6855 86.4623 10.1582C89.534 10.9611 91.8267 13.769 91.9305 17.1432C91.9277 17.2216 91.9177 17.2986 91.9177 17.377V23.7003C91.4799 23.5762 91.0421 23.4522 90.5986 23.3352V20.5487Z" fill="#1D4AE7"/>
<path fill-rule="evenodd" clip-rule="evenodd" d="M65.4834 46.2141C73.1619 46.1385 80.6386 45.4797 87.6022 44.306C84.3159 30.7339 75.4263 20.8611 64.8906 20.332V45.6194C64.8906 45.9489 65.1579 46.2184 65.4834 46.2141Z" fill="#1D4AE7"/>
<mask id="mask0_774_596" style="mask-type:alpha" maskUnits="userSpaceOnUse" x="0" y="1" width="115" height="108">
<path d="M114.96 108.472H0V1.12451H114.96V108.472Z" fill="#0056A6"/>
</mask>
<g mask="url(#mask0_774_596)">
<path fill-rule="evenodd" clip-rule="evenodd" d="M114.691 76.5816C108.029 73.0307 99.3977 70.2783 89.678 68.5143C89.5519 68.4913 89.4218 68.5163 89.313 68.5843C89.2042 68.6523 89.1245 68.7585 89.0895 68.8822C86.43 78.457 80.922 86.1236 73.9868 89.9669C73.4979 90.2379 73.7225 90.9737 74.2796 90.9238C77.7476 90.613 81.1986 90.1343 84.6206 89.4892C81.4863 93.9528 76.3649 96.6453 70.7673 96.6453H69.714C66.8582 96.6493 64.0478 95.9288 61.544 94.5507C59.0402 93.1727 56.9243 91.1818 55.3931 88.7633C57.5082 89.8257 59.7512 90.5117 62.0852 90.7427C62.1979 90.7526 62.3115 90.7389 62.4186 90.7024C62.5258 90.6658 62.6242 90.6074 62.7076 90.5307C62.791 90.4539 62.8576 90.3607 62.9032 90.2567C62.9487 90.1528 62.9722 90.0405 62.9722 89.927V67.1053C62.9714 66.9959 62.9491 66.8878 62.9064 66.7872C62.8638 66.6866 62.8017 66.5954 62.7237 66.519C62.6457 66.4426 62.5534 66.3825 62.4521 66.3421C62.3508 66.3018 62.2425 66.282 62.1335 66.2839C58.9893 66.3195 55.8807 66.4578 52.8232 66.6789V64.892C55.8892 64.671 59.0064 64.5355 62.1563 64.5012C62.3717 64.5013 62.5784 64.4158 62.7312 64.2635C62.8841 64.1112 62.9707 63.9045 62.9722 63.6884V48.9626C62.9707 48.7465 62.8841 48.5397 62.7312 48.3875C62.5784 48.2352 62.3717 48.1497 62.1563 48.1497C59.0064 48.1155 55.8892 47.98 52.8232 47.7604V45.9735C55.9333 46.1988 59.0959 46.3372 62.2956 46.37C62.3834 46.3711 62.4706 46.3548 62.5522 46.3221C62.6338 46.2894 62.7081 46.2408 62.771 46.1792C62.8338 46.1176 62.884 46.0442 62.9185 45.9631C62.953 45.8821 62.9712 45.795 62.9722 45.7068V20.9414C59.339 21.1225 55.9062 22.396 52.8232 24.5123V22.3518C53.3122 22.0457 53.8125 21.7579 54.3228 21.489C54.6938 21.295 54.5189 20.7332 54.101 20.7702C53.6718 20.8059 53.2482 20.8558 52.8232 20.8943V20.8672V17.9993C52.8232 14.9589 55.3192 12.4861 58.3852 12.4861H62.7391C62.7547 12.4861 62.7689 12.4804 62.786 12.4804C62.803 12.4804 62.8172 12.4861 62.8343 12.4861C63.69 12.4861 64.3837 11.7973 64.3837 10.9502V2.65748C64.3837 1.80896 63.69 1.12158 62.8343 1.12158H17.9868C17.1311 1.12158 16.4374 1.80896 16.4374 2.65748V10.9502C16.4374 11.7973 17.1311 12.4861 17.9868 12.4861L18.0038 12.4847H22.3733C25.4393 12.4847 27.9354 14.9589 27.9354 17.9993V20.1813L27.9311 20.2112V26.4618C24.7926 27.6454 21.8189 28.9902 19.0585 30.4962C16.8376 31.6981 14.7023 33.0528 12.6678 34.5505C12.5582 34.6333 12.4715 34.7427 12.4155 34.8683C12.3596 34.9939 12.3364 35.1317 12.348 35.2688C12.3597 35.4059 12.4058 35.5378 12.4821 35.6521C12.5584 35.7664 12.6624 35.8594 12.7843 35.9224C17.0742 38.2398 22.2098 40.215 27.9311 41.8122V43.6575C21.0954 41.7894 15.0487 39.3864 10.2087 36.5242L10.2002 36.5157C3.56068 42.2058 0 48.8685 0 55.8748C0 62.9482 3.62891 69.6737 10.3935 75.3994C10.6565 75.6219 11.0331 75.6561 11.3331 75.4878C15.9726 72.9066 21.6143 70.7218 27.9311 68.992V70.8345C22.5297 72.3419 17.6485 74.1872 13.5107 76.3392C13.3851 76.4029 13.278 76.4982 13.2001 76.6157C13.1222 76.7333 13.076 76.8692 13.0662 77.0101C13.0563 77.1509 13.083 77.2919 13.1437 77.4193C13.2045 77.5467 13.2971 77.6561 13.4126 77.7368C15.2233 79.0201 17.1086 80.1939 19.0585 81.2521C22.4103 83.0789 26.0719 84.6733 29.9723 86.0252C30.1436 86.0844 30.3297 86.0844 30.501 86.0252C35.8087 99.1623 48.7735 108.47 63.8989 108.47H64.7475C78.5994 108.47 91.007 99.777 95.6238 86.8367C95.6352 86.8024 95.6395 86.7668 95.6494 86.7326C100.354 85.2394 104.741 83.4098 108.697 81.2521C110.795 80.1147 112.818 78.8419 114.752 77.4416C114.821 77.3907 114.877 77.323 114.913 77.2448C114.949 77.1667 114.964 77.0806 114.958 76.9947C114.952 76.9088 114.924 76.8258 114.878 76.7536C114.831 76.6813 114.767 76.6222 114.691 76.5816ZM49.7273 18.0008V79.9002C49.7273 90.8269 58.6937 99.7157 69.7154 99.7157H70.7687C78.3407 99.7157 85.1749 95.5558 88.6048 88.8574C88.6418 88.7861 88.6659 88.712 88.6901 88.6378L89.4477 88.4553C85.2602 97.1401 76.5028 102.666 66.6793 102.666H66.1562C52.2347 102.666 40.9073 91.4386 40.9073 77.6384V20.1955C40.9073 20.1199 40.8988 20.0458 40.8974 19.9702C41.0196 14.6794 45.3891 10.4126 50.7536 10.4126H54.3455C51.6022 11.8543 49.7259 14.7122 49.7259 17.9993L49.7273 18.0008ZM61.2864 4.1948V9.18611H50.7536C48.4612 9.1823 46.2239 9.89007 44.3483 11.2124C42.4727 12.5347 41.0508 14.4068 40.2776 16.5718C39.5047 14.4065 38.0829 12.5341 36.2073 11.2115C34.3317 9.88896 32.0942 9.18097 29.8017 9.18469H19.5361V4.19338H61.2864V4.1948ZM64.7475 105.399H63.8989C45.7757 105.399 31.0298 90.7812 31.0298 72.8153V20.8872L31.0327 20.8572V18.0008C31.0327 14.7136 29.1592 11.8558 26.4144 10.414H29.8017C35.1662 10.414 39.5356 14.6823 39.6579 19.9716C39.6565 20.0472 39.6465 20.1214 39.6465 20.1969V24.5437C39.6465 24.5836 39.6607 24.6178 39.6693 24.6549V77.637C39.6693 92.116 51.5524 103.896 66.1562 103.896H66.6793C77.3258 103.896 86.784 97.7092 90.9886 88.0731C91.2927 87.9946 91.5927 87.9134 91.894 87.8306C87.199 98.4222 76.5525 105.399 64.7475 105.399Z" fill="#1D4AE7"/>
</g>
<path fill-rule="evenodd" clip-rule="evenodd" d="M117.573 36.7958C117.394 36.6352 117.169 36.5358 116.929 36.5119C116.69 36.4881 116.45 36.5411 116.243 36.6632C109.576 40.525 100.763 43.5269 90.7734 45.4564C90.4763 45.5145 90.2141 45.6879 90.0437 45.939C89.8734 46.19 89.8087 46.4983 89.8637 46.797C90.3712 49.632 90.6455 52.5926 90.6455 55.643C90.6455 58.9972 90.3186 62.2486 89.7116 65.3404C89.681 65.4897 89.6803 65.6435 89.7094 65.793C89.7386 65.9426 89.797 66.0848 89.8814 66.2115C89.9658 66.3382 90.0744 66.4468 90.2009 66.5311C90.3274 66.6153 90.4694 66.6735 90.6185 66.7023C100.372 68.5734 109.012 71.4669 115.636 75.1819C116.055 75.4172 116.574 75.3715 116.936 75.0549C123.489 69.352 127 62.6693 127 55.643C127 48.8463 123.715 42.3732 117.573 36.7958ZM65.7094 64.1824C73.1733 64.2609 80.4567 64.8527 87.2838 65.8994C87.4893 65.9354 87.7007 65.8916 87.8752 65.7769C88.0497 65.6623 88.1742 65.4853 88.2234 65.2819C88.8744 62.2643 89.2255 59.0756 89.2255 55.7771C89.2255 52.7923 88.9341 49.8987 88.3968 47.1392C88.3144 46.7171 87.8936 46.4404 87.4516 46.5075C80.5761 47.5713 73.2344 48.1717 65.7094 48.2516C65.4964 48.2485 65.2909 48.33 65.1376 48.4782C64.9842 48.6265 64.8955 48.8295 64.8906 49.0431V63.3895C64.8906 63.8245 65.2559 64.1781 65.7094 64.1824Z" fill="#1D4AE7"/>
</svg>
