<svg width="95" height="63" viewBox="0 0 95 63" fill="none" xmlns="http://www.w3.org/2000/svg">
<path fill-rule="evenodd" clip-rule="evenodd" d="M35.5693 58.9726C33.851 57.2543 33.8475 54.4719 35.5614 52.7579L85.216 3.10331C86.93 1.38934 89.7124 1.39286 91.4307 3.11116C93.149 4.82947 93.1525 7.61188 91.4386 9.32585L41.784 58.9805C40.07 60.6944 37.2876 60.6909 35.5693 58.9726Z" fill="#F2F2FF"/>
<path d="M35.5693 3.11127C37.2876 1.39296 40.07 1.38945 41.784 3.10341L91.4386 52.758C93.1525 54.472 93.149 57.2544 91.4307 58.9727C89.7124 60.691 86.93 60.6945 85.216 58.9806L35.5614 9.32595C33.8474 7.61198 33.851 4.82958 35.5693 3.11127Z" fill="#F2F2FF"/>
</svg>
