<svg width="79" height="44" viewBox="0 0 79 44" fill="none" xmlns="http://www.w3.org/2000/svg">
<path fill-rule="evenodd" clip-rule="evenodd" d="M0 4.4C0 1.96995 1.96497 0 4.38889 0H74.6111C77.035 0 79 1.96995 79 4.4C79 6.83005 77.035 8.8 74.6111 8.8H4.38889C1.96497 8.8 0 6.83005 0 4.4Z" fill="white"/>
<path d="M0 39.6002C0 37.1701 1.96497 35.2002 4.38889 35.2002H39.5C41.9239 35.2002 43.8889 37.1701 43.8889 39.6002C43.8889 42.0302 41.9239 44.0002 39.5 44.0002H4.38889C1.96497 44.0002 0 42.0302 0 39.6002Z" fill="white"/>
<path d="M0 22.0001C0 19.57 1.96497 17.6001 4.38889 17.6001H74.6111C77.035 17.6001 79 19.57 79 22.0001C79 24.4301 77.035 26.4001 74.6111 26.4001H4.38889C1.96497 26.4001 0 24.4301 0 22.0001Z" fill="white"/>
</svg>
