<svg width="67" height="66" viewBox="0 0 67 66" fill="none" xmlns="http://www.w3.org/2000/svg">
<path d="M5.8894 32.9973L44.3895 32.9973M44.3895 32.9973L34.7645 24.7473M44.3895 32.9973L34.7645 41.2473" stroke="white" stroke-width="5" stroke-linecap="round" stroke-linejoin="round"/>
<path d="M25.1421 19.25C25.1754 13.2687 25.4406 10.0294 27.5537 7.91637C29.9701 5.5 33.8592 5.5 41.6373 5.5L44.3873 5.5C52.1654 5.5 56.0547 5.5 58.4708 7.91637C60.8873 10.3327 60.8873 14.2218 60.8873 22L60.8873 44C60.8873 51.7781 60.8873 55.6672 58.4708 58.0836C56.3577 60.1967 53.1185 60.4621 47.1367 60.4953M25.1421 46.75C25.1754 52.7312 25.4406 55.9705 27.5537 58.0836C29.3173 59.8472 31.8652 60.3237 36.1367 60.4524" stroke="white" stroke-width="5" stroke-linecap="round"/>
</svg>
