<svg width="37" height="35" viewBox="0 0 37 35" fill="none" xmlns="http://www.w3.org/2000/svg">
<path fill-rule="evenodd" clip-rule="evenodd" d="M29.6344 20.2993C28.0492 20.2993 27.6348 20.325 27.2869 20.4823L27.2865 20.4825C26.9386 20.6396 26.6493 20.9321 25.6175 22.1151C25.6175 22.1151 25.6174 22.1152 25.6174 22.1152L24.632 23.2453L24.6319 23.2455C24.5836 23.3009 24.5359 23.3556 24.4888 23.4097C23.672 24.3482 23.0248 25.0919 22.129 25.4967C22.1289 25.4968 22.1288 25.4968 22.1287 25.4969C21.2328 25.9018 20.2368 25.9008 18.9795 25.8995C18.9076 25.8994 18.8347 25.8993 18.761 25.8993H18.239C18.1653 25.8993 18.0924 25.8994 18.0205 25.8995C16.7631 25.9008 15.7672 25.9018 14.8713 25.4969C14.8712 25.4968 14.8711 25.4968 14.871 25.4967C13.9752 25.0919 13.3278 24.348 12.5109 23.4093C12.4639 23.3553 12.4163 23.3007 12.3681 23.2455L12.3681 23.2454L11.3826 22.1152C11.3826 22.1152 11.3825 22.1152 11.3825 22.1151C10.3507 20.9321 10.0613 20.6396 9.71346 20.4824L9.71322 20.4823C9.36527 20.325 8.95082 20.2993 7.36554 20.2993H2.22093C1.54663 20.2993 1 19.7621 1 19.0993C1 18.4366 1.54663 17.8993 2.22093 17.8993H7.36554C7.43929 17.8993 7.51215 17.8993 7.58415 17.8992C8.84159 17.8979 9.83754 17.8969 10.7335 18.3018C10.7335 18.3019 10.7336 18.3019 10.7337 18.302C11.6295 18.7068 12.2768 19.4506 13.0938 20.3893C13.1408 20.4433 13.1883 20.498 13.2365 20.5532L14.2221 21.6835C14.2221 21.6835 14.2221 21.6835 14.2221 21.6836C15.2539 22.8665 15.5433 23.159 15.8912 23.3162L15.8915 23.3164C16.2394 23.4737 16.6539 23.4993 18.239 23.4993H18.761C20.3461 23.4993 20.7606 23.4737 21.1085 23.3164L21.1088 23.3162C21.4567 23.159 21.746 22.8666 22.7779 21.6836C22.7779 21.6835 22.7779 21.6835 22.778 21.6835L23.7634 20.5533L23.7635 20.5532C23.8118 20.4978 23.8595 20.4431 23.9066 20.3889C24.7233 19.4505 25.3706 18.7068 26.2663 18.302C27.1623 17.8969 28.1583 17.8979 29.4158 17.8992C29.4878 17.8993 29.5606 17.8993 29.6344 17.8993H34.7791C35.4534 17.8993 36 18.4366 36 19.0993C36 19.7621 35.4534 20.2993 34.7791 20.2993H29.6344Z" fill="white"/>
<path d="M34.7798 17.5C34.7798 25.0424 34.7798 28.8138 32.3957 31.1568C30.0118 33.5 26.1746 33.5 18.5007 33.5C10.8267 33.5 6.98964 33.5 4.60564 31.1568C2.22162 28.8138 2.22162 25.0424 2.22162 17.5C2.22162 9.95752 2.22162 6.18629 4.60564 3.84315C6.98964 1.5 10.8267 1.5 18.5007 1.5C26.1746 1.5 30.0118 1.5 32.3957 3.84315C33.9809 5.40114 34.5121 7.59048 34.6901 11.1" stroke="white" stroke-width="3" stroke-linecap="round"/>
</svg>
