<svg width="41" height="40" viewBox="0 0 41 40" fill="none" xmlns="http://www.w3.org/2000/svg">
<path d="M3.46182 9.59243C3.41627 8.74401 2.69147 8.09314 1.84292 8.13868C0.994373 8.18421 0.343426 8.90893 0.38897 9.75732L3.46182 9.59243ZM5.44328 1.72892C4.85806 2.34496 4.88311 3.31868 5.49924 3.90383C6.11538 4.48895 7.08925 4.46391 7.67449 3.84787L5.44328 1.72892ZM17.6424 36.0254C18.3619 36.4774 19.3118 36.2608 19.7639 35.5415C20.2161 34.8221 19.9992 33.8724 19.2798 33.4203L17.6424 36.0254ZM26.7694 36.5302C25.9377 36.356 25.1223 36.8891 24.9481 37.7207C24.7739 38.5522 25.3069 39.3676 26.1388 39.5417L26.7694 36.5302ZM27.86 27.2696L28.7943 26.286L26.5631 24.1672L25.6288 25.1507L27.86 27.2696ZM31.8689 25.8719L35.7883 28.1276L37.3235 25.4611L33.404 23.2053L31.8689 25.8719ZM36.5447 32.8041L33.6305 35.8719L35.8618 37.9908L38.776 34.9232L36.5447 32.8041ZM12.9139 28.1208C4.96193 19.7501 3.62807 12.6894 3.46182 9.59243L0.38897 9.75732C0.592583 13.5505 2.20339 21.3141 10.6827 30.2397L12.9139 28.1208ZM15.7354 14.5068L16.3239 13.8874L14.0926 11.7685L13.5042 12.3878L15.7354 14.5068ZM16.7861 6.1759L14.1991 2.51761L11.6865 4.29388L14.2734 7.95216L16.7861 6.1759ZM14.6198 13.4473C13.5042 12.3878 13.5028 12.3893 13.5014 12.3908C13.5009 12.3914 13.4994 12.3929 13.4985 12.3939C13.4965 12.396 13.4945 12.3981 13.4925 12.4003C13.4885 12.4046 13.4843 12.4092 13.48 12.4139C13.4714 12.4234 13.4623 12.4336 13.4527 12.4446C13.4335 12.4667 13.4124 12.4919 13.3898 12.5204C13.3447 12.5774 13.2937 12.6474 13.2402 12.7311C13.1329 12.8988 13.0165 13.1196 12.9179 13.3966C12.7175 13.9598 12.6082 14.7056 12.7447 15.637C13.0129 17.4669 14.2121 19.9277 17.3456 23.2261L19.5768 21.1072C16.6479 18.024 15.9264 16.1252 15.7895 15.1909C15.7235 14.7402 15.7906 14.5027 15.8171 14.4281C15.832 14.3861 15.8418 14.3745 15.8323 14.3894C15.8276 14.3966 15.8184 14.4102 15.8029 14.4298C15.7951 14.4396 15.7858 14.451 15.7746 14.4638C15.769 14.4702 15.763 14.477 15.7565 14.4842C15.7532 14.4878 15.7498 14.4914 15.7463 14.4952C15.7446 14.4971 15.7428 14.499 15.741 14.5009C15.7401 14.5019 15.7387 14.5034 15.7382 14.5038C15.7368 14.5053 15.7354 14.5068 14.6198 13.4473ZM17.3456 23.2261C20.4696 26.5148 22.8293 27.8076 24.6295 28.0999C25.5531 28.2499 26.3009 28.1301 26.8671 27.9069C27.1438 27.7978 27.3629 27.6696 27.5273 27.5531C27.6091 27.4948 27.6774 27.4396 27.7326 27.3914C27.7601 27.3672 27.7845 27.3447 27.8057 27.3242C27.8163 27.3141 27.826 27.3043 27.835 27.2952C27.8395 27.2907 27.844 27.2862 27.8481 27.2819C27.8502 27.2799 27.8522 27.2778 27.8541 27.2758C27.8551 27.2747 27.8565 27.2731 27.8572 27.2727C27.8586 27.271 27.86 27.2696 26.7444 26.2102C25.6288 25.1507 25.6302 25.1493 25.6315 25.1478C25.6321 25.1472 25.6333 25.1458 25.6343 25.1448C25.6362 25.1429 25.638 25.1411 25.6397 25.1392C25.6434 25.1355 25.6468 25.1318 25.6503 25.1283C25.6571 25.1216 25.6637 25.115 25.6698 25.1091C25.6823 25.0972 25.6934 25.0869 25.7033 25.0783C25.723 25.0611 25.7375 25.05 25.747 25.0434C25.766 25.0297 25.7642 25.0344 25.7379 25.0447C25.6983 25.0602 25.5121 25.1261 25.1227 25.0629C24.2969 24.9288 22.5148 24.2 19.5768 21.1072L17.3456 23.2261ZM14.1991 2.51761C12.1197 -0.422956 7.95881 -0.91906 5.44328 1.72892L7.67449 3.84787C8.74709 2.71879 10.6354 2.80748 11.6865 4.29388L14.1991 2.51761ZM33.6305 35.8719C33.058 36.4746 32.4591 36.7974 31.8769 36.8549L32.1793 39.9169C33.7118 39.7655 34.9521 38.9483 35.8618 37.9908L33.6305 35.8719ZM16.3239 13.8874C18.3088 11.7979 18.4493 8.52793 16.7861 6.1759L14.2734 7.95216C15.1395 9.17687 15.0066 10.8063 14.0926 11.7685L16.3239 13.8874ZM35.7883 28.1276C37.4724 29.0968 37.8019 31.4809 36.5447 32.8041L38.776 34.9232C41.4532 32.1051 40.6734 27.389 37.3235 25.4611L35.7883 28.1276ZM28.7943 26.286C29.5849 25.4537 30.8171 25.2666 31.8689 25.8719L33.404 23.2053C31.1505 21.9084 28.3557 22.2803 26.5631 24.1672L28.7943 26.286ZM19.2798 33.4203C17.2617 32.1523 15.1137 30.4364 12.9139 28.1208L10.6827 30.2397C13.0502 32.7319 15.3958 34.6137 17.6424 36.0254L19.2798 33.4203ZM31.8769 36.8549C30.7557 36.9656 28.9814 36.9933 26.7694 36.5302L26.1388 39.5417C28.7001 40.0779 30.7929 40.0537 32.1793 39.9169L31.8769 36.8549Z" fill="white"/>
</svg>
