<svg width="571" height="477" viewBox="0 0 571 477" fill="none" xmlns="http://www.w3.org/2000/svg">
<g style="mix-blend-mode:soft-light" opacity="0.8">
<path fill-rule="evenodd" clip-rule="evenodd" d="M11.2462 812.704C100.974 803.944 176.714 725.538 209.181 617.137C209.467 616.119 209.53 615.051 209.367 614.006C209.205 612.962 208.82 611.964 208.238 611.081C207.657 610.197 206.892 609.449 205.997 608.887C205.102 608.324 204.096 607.961 203.048 607.82C142.099 598.568 77.0995 593.327 10.4439 592.602C9.45052 592.576 8.46185 592.748 7.5349 593.106C6.60794 593.464 5.761 594.002 5.04288 594.688C4.32477 595.375 3.74968 596.197 3.35075 597.108C2.95182 598.018 2.73695 598.998 2.71851 599.991V805.406C2.71851 809.819 6.70412 813.17 11.2591 812.717M94.2713 193.781C155.272 231.101 203.242 302.894 225.68 391.678C226.042 393.174 226.961 394.476 228.25 395.318C229.539 396.159 231.101 396.478 232.616 396.207C320.378 379.514 398.033 353.452 457.467 319.924C458.345 319.411 459.085 318.691 459.621 317.828C460.157 316.964 460.474 315.982 460.544 314.968C460.615 313.954 460.436 312.938 460.023 312.009C459.611 311.079 458.978 310.265 458.179 309.636C439.551 295.353 419.913 282.439 399.417 270.996C368.684 253.708 335.039 238.684 299.155 226.003V177.451C299.155 177.166 299.091 176.907 299.078 176.623V155.711C299.078 127.656 321.387 104.843 348.833 104.843H387.758C387.965 104.843 388.146 104.791 388.34 104.778C388.547 104.778 388.728 104.843 388.936 104.843C396.596 104.843 402.782 98.5018 402.782 90.6729V14.1697C402.795 6.34076 396.596 0 388.948 0H120.1C112.44 0 106.228 6.34076 106.228 14.1697V90.6729C106.228 98.5018 112.44 104.843 120.1 104.843C120.488 104.843 120.851 104.765 121.239 104.713C121.627 104.765 122.002 104.843 122.404 104.843H161.341C188.775 104.843 211.084 127.656 211.084 155.698V200.704C173.784 192.255 135.994 186.14 97.9334 182.394C91.5538 181.76 88.7717 190.417 94.2713 193.781ZM271.36 155.711V182.057C271.36 182.342 271.424 182.601 271.437 182.886V216.854C268.383 215.909 265.342 214.952 262.25 214.033V146.355C264.941 119.905 282.618 97.9971 306.389 89.5212C295.57 96.8351 286.716 106.698 280.607 118.241C274.498 129.783 271.323 142.652 271.36 155.711ZM375.076 28.3264V74.381H328.103C295.687 74.381 267.918 94.9044 256.452 123.878C244.987 94.8914 217.217 74.381 184.815 74.381H133.959V28.3264H375.076ZM238.789 182.174L238.802 182.057V155.711C238.802 126.932 223.662 101.75 201.133 87.8907C229.097 95.1761 249.969 120.656 250.914 151.272C250.888 151.984 250.797 152.683 250.797 153.395V210.772C246.812 209.646 242.826 208.52 238.789 207.459V182.174Z" fill="white"/>
<path fill-rule="evenodd" clip-rule="evenodd" d="M10.1478 415.065C80.0515 414.379 148.118 408.401 211.512 397.751C181.594 274.598 100.665 185.012 4.75171 180.211V409.669C4.75171 412.658 7.18449 415.104 10.1478 415.065Z" fill="white"/>
<mask id="mask0_409_27" style="mask-type:alpha" maskUnits="userSpaceOnUse" x="-586" y="5" width="1047" height="975">
<path d="M460.562 980H-586V5.92969H460.562V980Z" fill="#0056A6"/>
</mask>
<g mask="url(#mask0_409_27)">
<path fill-rule="evenodd" clip-rule="evenodd" d="M458.116 690.641C397.465 658.42 318.891 633.445 230.405 617.438C229.257 617.23 228.073 617.456 227.082 618.073C226.092 618.69 225.367 619.654 225.048 620.777C200.837 707.658 150.693 777.225 87.5569 812.099C83.1055 814.558 85.15 821.235 90.2227 820.782C121.794 817.962 153.211 813.618 184.364 807.764C155.83 848.268 109.206 872.699 58.2471 872.699H48.6583C22.6598 872.735 -2.92578 866.197 -25.7197 853.693C-48.5137 841.188 -67.7758 823.123 -81.7155 801.178C-62.4603 810.818 -42.0404 817.043 -20.7924 819.139C-19.7662 819.229 -18.7325 819.104 -17.757 818.773C-16.7816 818.441 -15.8856 817.911 -15.1263 817.215C-14.3669 816.519 -13.7606 815.672 -13.3459 814.729C-12.9313 813.786 -12.7173 812.767 -12.7177 811.737V604.653C-12.7244 603.661 -12.9277 602.68 -13.316 601.766C-13.7043 600.853 -14.2698 600.026 -14.9799 599.333C-15.6899 598.64 -16.5303 598.094 -17.4525 597.728C-18.3746 597.362 -19.3603 597.182 -20.3524 597.199C-48.9764 597.523 -77.2769 598.778 -105.112 600.784V584.57C-77.1993 582.564 -48.8212 581.334 -20.1454 581.024C-18.1844 581.024 -16.3029 580.249 -14.9114 578.867C-13.5199 577.485 -12.7313 575.609 -12.7177 573.648V440.026C-12.7313 438.065 -13.5199 436.189 -14.9114 434.807C-16.3029 433.426 -18.1844 432.65 -20.1454 432.65C-48.8212 432.34 -77.1993 431.11 -105.112 429.117V412.903C-76.7982 414.948 -48.0059 416.203 -18.8773 416.501C-18.0775 416.511 -17.2835 416.363 -16.5408 416.066C-15.7982 415.769 -15.1214 415.329 -14.5493 414.77C-13.9771 414.211 -13.5208 413.544 -13.2065 412.809C-12.8922 412.073 -12.7261 411.283 -12.7177 410.483V185.762C-45.7932 187.405 -77.044 198.961 -105.112 218.164V198.56C-100.659 195.782 -96.1054 193.171 -91.4595 190.731C-88.0821 188.971 -89.6738 183.872 -93.4782 184.209C-97.3862 184.532 -101.242 184.985 -105.112 185.335V185.089V159.066C-105.112 131.477 -82.3884 109.038 -54.4761 109.038H-14.8398C-14.6975 109.038 -14.5681 108.987 -14.4128 108.987C-14.2575 108.987 -14.1281 109.038 -13.9728 109.038C-6.18274 109.038 0.13208 102.788 0.13208 95.1017V19.8537C0.13208 12.1542 -6.18274 5.91699 -13.9728 5.91699H-422.253C-430.043 5.91699 -436.358 12.1542 -436.358 19.8537V95.1017C-436.358 102.788 -430.043 109.038 -422.253 109.038L-422.098 109.026H-382.319C-354.407 109.026 -331.684 131.477 -331.684 159.066V178.864L-331.723 179.136V235.854C-360.295 246.594 -387.366 258.797 -412.496 272.462C-432.715 283.368 -452.154 295.661 -470.676 309.251C-471.673 310.002 -472.463 310.995 -472.972 312.134C-473.481 313.274 -473.693 314.525 -473.587 315.769C-473.481 317.013 -473.061 318.21 -472.366 319.247C-471.671 320.284 -470.725 321.128 -469.615 321.7C-430.561 342.728 -383.807 360.65 -331.723 375.143V391.888C-393.953 374.936 -449.001 353.132 -493.063 327.161L-493.14 327.083C-553.584 378.715 -586 439.172 -586 502.748C-586 566.932 -552.963 627.958 -491.38 679.914C-488.986 681.933 -485.557 682.243 -482.827 680.716C-440.59 657.294 -389.229 637.47 -331.723 621.773V638.492C-380.896 652.17 -425.333 668.915 -463.002 688.442C-464.146 689.019 -465.12 689.884 -465.829 690.951C-466.539 692.018 -466.959 693.251 -467.049 694.529C-467.139 695.807 -466.896 697.087 -466.343 698.242C-465.79 699.398 -464.947 700.391 -463.895 701.123C-447.411 712.768 -430.248 723.419 -412.496 733.021C-381.983 749.598 -348.649 764.065 -313.14 776.332C-311.581 776.87 -309.886 776.87 -308.326 776.332C-260.007 895.539 -141.979 980 -4.28058 980H3.44482C129.548 980 242.504 901.116 284.535 783.695C284.638 783.385 284.677 783.061 284.768 782.751C327.6 769.202 367.534 752.6 403.547 733.021C422.651 722.7 441.065 711.151 458.673 698.444C459.303 697.983 459.806 697.368 460.135 696.659C460.463 695.95 460.606 695.169 460.55 694.389C460.495 693.61 460.242 692.857 459.817 692.201C459.391 691.546 458.806 691.009 458.116 690.641ZM-133.296 159.079V720.754C-133.296 819.902 -51.668 900.559 48.6713 900.559H58.26C127.193 900.559 189.41 862.812 220.635 802.032C220.972 801.385 221.192 800.712 221.412 800.039L228.309 798.383C190.187 877.189 110.461 927.333 21.0307 927.333H16.2687C-110.469 927.333 -213.59 825.454 -213.59 700.23V178.994C-213.59 178.308 -213.668 177.635 -213.681 176.949C-212.568 128.941 -172.789 90.2232 -123.953 90.2232H-91.2525C-116.227 103.306 -133.309 129.238 -133.309 159.066L-133.296 159.079ZM-28.0649 33.8034V79.0945H-123.953C-144.822 79.0599 -165.19 85.4823 -182.265 97.4809C-199.339 109.479 -212.284 126.467 -219.323 146.113C-226.36 126.464 -239.303 109.474 -256.378 97.4732C-273.453 85.4722 -293.823 79.0479 -314.693 79.0816H-408.148V33.7905H-28.0649V33.8034ZM3.44482 952.127H-4.28058C-169.27 952.127 -303.513 819.488 -303.513 656.466V185.27L-303.487 184.998V159.079C-303.487 129.251 -320.542 103.319 -345.53 90.2362H-314.693C-265.856 90.2362 -226.078 128.967 -224.965 176.962C-224.978 177.648 -225.068 178.321 -225.068 179.007V218.449C-225.068 218.811 -224.939 219.122 -224.861 219.458V700.217C-224.861 831.6 -116.68 938.488 16.2687 938.488H21.0307C117.954 938.488 204.059 882.352 242.336 794.915C245.105 794.203 247.836 793.465 250.579 792.715C207.837 888.823 110.914 952.127 3.44482 952.127Z" fill="white"/>
</g>
<path fill-rule="evenodd" clip-rule="evenodd" d="M484.359 329.595C482.728 328.137 480.676 327.235 478.499 327.019C476.322 326.803 474.133 327.283 472.247 328.391C411.557 363.434 331.327 390.673 240.382 408.181C237.677 408.708 235.29 410.282 233.739 412.56C232.188 414.838 231.599 417.636 232.1 420.345C236.72 446.071 239.217 472.935 239.217 500.614C239.217 531.05 236.241 560.554 230.716 588.608C230.437 589.963 230.43 591.359 230.696 592.716C230.961 594.072 231.493 595.363 232.261 596.513C233.029 597.662 234.018 598.648 235.17 599.413C236.322 600.177 237.614 600.705 238.972 600.966C327.768 617.944 406.419 644.2 466.721 677.91C470.539 680.045 475.262 679.631 478.562 676.758C538.217 625.01 570.179 564.371 570.179 500.614C570.179 438.941 540.274 380.204 484.359 329.595ZM12.2053 578.101C80.155 578.813 146.461 584.183 208.614 593.681C210.484 594.007 212.409 593.61 213.997 592.569C215.586 591.529 216.719 589.923 217.167 588.078C223.094 560.696 226.29 531.762 226.29 501.831C226.29 474.746 223.637 448.491 218.746 423.451C217.995 419.621 214.165 417.11 210.141 417.718C147.548 427.372 80.7114 432.82 12.2053 433.544C10.2669 433.517 8.39599 434.256 6.99997 435.601C5.60394 436.946 4.79588 438.788 4.75171 440.726V570.906C4.75171 574.853 8.07738 578.062 12.2053 578.101Z" fill="white"/>
</g>
</svg>
