<svg width="136" height="115" viewBox="0 0 136 115" fill="none" xmlns="http://www.w3.org/2000/svg">
<path fill-rule="evenodd" clip-rule="evenodd" d="M79.4214 1.87126C81.6976 -0.623754 85.3881 -0.623754 87.6643 1.87126L134.293 52.9824C136.569 55.4774 136.569 59.5226 134.293 62.0176L87.6643 113.129C85.3881 115.624 81.6976 115.624 79.4214 113.129C77.1452 110.634 77.1452 106.589 79.4214 104.093L116.1 63.8889H48.5714C45.3524 63.8889 42.7429 61.0285 42.7429 57.5C42.7429 53.9715 45.3524 51.1111 48.5714 51.1111H116.1L79.4214 10.9065C77.1452 8.4115 77.1452 4.36628 79.4214 1.87126ZM0 57.5C0 53.9715 2.60954 51.1111 5.82857 51.1111H25.2571C28.4762 51.1111 31.0857 53.9715 31.0857 57.5C31.0857 61.0285 28.4762 63.8889 25.2571 63.8889H5.82857C2.60954 63.8889 0 61.0285 0 57.5Z" fill="#111119"/>
</svg>
