<svg width="136" height="132" viewBox="0 0 136 132" fill="none" xmlns="http://www.w3.org/2000/svg">
<path fill-rule="evenodd" clip-rule="evenodd" d="M56.5786 129.622C54.3024 132.48 50.6119 132.48 48.3357 129.622L1.70716 71.059C-0.569057 68.2002 -0.569057 63.5653 1.70716 60.7065L48.3357 2.14396C50.6119 -0.714807 54.3024 -0.714807 56.5786 2.14396C58.8548 5.00272 58.8548 9.63769 56.5786 12.4965L19.9 58.5624L87.4286 58.5624C90.6476 58.5624 93.2571 61.8399 93.2571 65.8828C93.2571 69.9257 90.6476 73.2031 87.4286 73.2031L19.9 73.2031L56.5786 119.269C58.8548 122.128 58.8548 126.763 56.5786 129.622ZM136 65.8828C136 69.9257 133.39 73.2031 130.171 73.2031L110.743 73.2031C107.524 73.2031 104.914 69.9257 104.914 65.8828C104.914 61.8399 107.524 58.5624 110.743 58.5624L130.171 58.5624C133.39 58.5624 136 61.8399 136 65.8828Z" fill="#111119" fill-opacity="0.04"/>
</svg>
