<svg width="1306" height="1456" viewBox="0 0 1306 1456" fill="none" xmlns="http://www.w3.org/2000/svg">
<g opacity="0.04">
<path d="M456.667 1334.67C285.075 1334.67 199.28 1334.67 145.973 1281.36C92.6668 1228.05 92.6667 1142.26 92.6667 970.667V485.333C92.6667 313.742 92.6668 227.947 145.973 174.64C199.28 121.333 285.075 121.333 456.667 121.333H699.333C870.923 121.333 956.718 121.333 1010.03 174.64C1063.33 227.947 1063.33 313.742 1063.33 485.333M699.333 1334.67C870.923 1334.67 956.718 1334.67 1010.03 1281.36C1063.33 1228.05 1063.33 1142.26 1063.33 970.667V728" stroke="#1D4AE7" stroke-width="50" stroke-linecap="round"/>
<path d="M1057.13 970.667H329.132C272.714 970.667 244.504 970.667 221.36 976.867C158.553 993.696 109.496 1042.76 92.6667 1105.56" stroke="#1D4AE7" stroke-width="50"/>
<path d="M274.667 970.666V546M274.667 151.667V303.333" stroke="#1D4AE7" stroke-width="50" stroke-linecap="round"/>
<path d="M638.667 970.667V1184.87C638.667 1201.59 638.667 1209.95 632.909 1213.33C627.158 1216.71 619.29 1212.98 603.547 1205.5L528.187 1169.7C522.86 1167.17 520.197 1165.9 517.333 1165.9C514.47 1165.9 511.807 1167.17 506.48 1169.7L431.119 1205.5C415.379 1212.98 407.509 1216.71 401.754 1213.33C396 1209.95 396 1201.59 396 1184.87V997.967" stroke="#1D4AE7" stroke-width="50" stroke-linecap="round"/>
</g>
</svg>
