<svg width="90" height="40" viewBox="0 0 90 40" fill="none" xmlns="http://www.w3.org/2000/svg">
<path fill-rule="evenodd" clip-rule="evenodd" d="M1.58721 1.3969C3.13664 -0.280397 5.85809 -0.474641 7.66575 0.963046L21.0773 11.6297C22.885 13.0674 23.0943 15.5926 21.5449 17.2699C19.9955 18.9472 17.274 19.1414 15.4664 17.7037L2.05479 7.03708C0.247127 5.5994 0.0377861 3.0742 1.58721 1.3969ZM88.603 1.3969C90.1524 3.0742 89.943 5.5994 88.1354 7.03709L47.9006 39.037C46.2862 40.321 43.904 40.321 42.2896 39.037L32.2309 31.037C30.4232 29.5994 30.2139 27.0742 31.7633 25.3969C33.3127 23.7196 36.0342 23.5253 37.8419 24.963L45.0951 30.7317L82.5244 0.963044C84.3321 -0.474642 87.0535 -0.280396 88.603 1.3969Z" fill="#111119"/>
</svg>
