<svg width="578" height="482" viewBox="0 0 578 482" fill="none" xmlns="http://www.w3.org/2000/svg">
<mask id="mask0_470_21" style="mask-type:alpha" maskUnits="userSpaceOnUse" x="0" y="0" width="578" height="482">
<rect width="578" height="482" fill="url(#paint0_radial_470_21)"/>
</mask>
<g mask="url(#mask0_470_21)">
<g style="mix-blend-mode:soft-light">
<path fill-rule="evenodd" clip-rule="evenodd" d="M19.2464 817.704C108.975 808.944 184.714 730.538 217.182 622.137C217.467 621.119 217.53 620.051 217.368 619.006C217.205 617.962 216.82 616.964 216.238 616.081C215.657 615.197 214.893 614.449 213.997 613.887C213.102 613.324 212.096 612.961 211.048 612.82C150.099 603.568 85.0998 598.327 18.4441 597.602C17.4508 597.577 16.4621 597.748 15.5351 598.106C14.6082 598.464 13.7612 599.002 13.0431 599.688C12.325 600.375 11.7499 601.197 11.351 602.108C10.9521 603.018 10.7372 603.998 10.7188 604.991V810.406C10.7188 814.819 14.7044 818.17 19.2594 817.717M102.272 198.781C163.272 236.101 211.242 307.894 233.681 396.678C234.042 398.174 234.962 399.476 236.25 400.318C237.539 401.159 239.101 401.478 240.617 401.207C328.378 384.514 406.033 358.452 465.468 324.924C466.346 324.411 467.085 323.691 467.621 322.828C468.157 321.964 468.474 320.982 468.545 319.968C468.615 318.954 468.436 317.938 468.024 317.009C467.611 316.079 466.978 315.265 466.179 314.636C447.552 300.353 427.913 287.439 407.417 275.996C376.684 258.708 343.039 243.684 307.156 231.003V182.451C307.156 182.166 307.091 181.907 307.078 181.623V160.711C307.078 132.656 329.387 109.843 356.834 109.843H395.758C395.965 109.843 396.146 109.791 396.341 109.778C396.548 109.778 396.729 109.843 396.936 109.843C404.596 109.843 410.782 103.502 410.782 95.6729V19.1697C410.795 11.3408 404.596 5 396.949 5H128.1C120.44 5 114.228 11.3408 114.228 19.1697V95.6729C114.228 103.502 120.44 109.843 128.1 109.843C128.489 109.843 128.851 109.765 129.239 109.713C129.627 109.765 130.003 109.843 130.404 109.843H169.341C196.775 109.843 219.084 132.656 219.084 160.698V205.704C181.784 197.255 143.994 191.14 105.934 187.394C99.5541 186.76 96.7719 195.417 102.272 198.781ZM279.36 160.711V187.057C279.36 187.342 279.425 187.601 279.438 187.886V221.854C276.384 220.909 273.343 219.952 270.25 219.033V151.355C272.942 124.905 290.618 102.997 314.389 94.5212C303.57 101.835 294.716 111.698 288.607 123.241C282.499 134.783 279.323 147.652 279.36 160.711ZM383.077 33.3264V79.381H336.103C303.688 79.381 275.918 99.9044 264.453 128.878C252.988 99.8914 225.218 79.381 192.815 79.381H141.96V33.3264H383.077ZM246.789 187.174L246.802 187.057V160.711C246.802 131.932 231.662 106.75 209.133 92.8907C237.097 100.176 257.97 125.656 258.914 156.272C258.888 156.984 258.798 157.683 258.798 158.395V215.772C254.812 214.646 250.827 213.52 246.789 212.459V187.174Z" fill="white"/>
<path fill-rule="evenodd" clip-rule="evenodd" d="M18.1481 420.065C88.0517 419.379 156.118 413.401 219.512 402.751C189.594 279.598 108.666 190.012 12.752 185.211V414.669C12.752 417.658 15.1847 420.104 18.1481 420.065Z" fill="white"/>
<mask id="mask1_470_21" style="mask-type:alpha" maskUnits="userSpaceOnUse" x="-578" y="10" width="1047" height="975">
<path d="M468.562 985H-578V10.9297H468.562V985Z" fill="#0056A6"/>
</mask>
<g mask="url(#mask1_470_21)">
<path fill-rule="evenodd" clip-rule="evenodd" d="M466.116 695.641C405.465 663.42 326.891 638.445 238.405 622.438C237.257 622.23 236.072 622.456 235.082 623.073C234.092 623.69 233.367 624.654 233.048 625.777C208.837 712.658 158.693 782.225 95.5569 817.099C91.1055 819.558 93.15 826.235 98.2227 825.782C129.794 822.962 161.211 818.618 192.364 812.764C163.83 853.268 117.206 877.699 66.2471 877.699H56.6583C30.6598 877.735 5.07422 871.197 -17.7197 858.693C-40.5137 846.188 -59.7758 828.123 -73.7155 806.178C-54.4603 815.818 -34.0404 822.043 -12.7924 824.139C-11.7662 824.229 -10.7325 824.104 -9.75702 823.773C-8.78156 823.441 -7.88568 822.911 -7.12628 822.215C-6.36688 821.519 -5.76062 820.672 -5.34595 819.729C-4.93127 818.786 -4.71735 817.767 -4.71765 816.737V609.653C-4.72437 608.661 -4.92767 607.68 -5.31598 606.766C-5.70428 605.853 -6.26984 605.026 -6.97986 604.333C-7.68988 603.64 -8.53027 603.094 -9.45245 602.728C-10.3746 602.362 -11.3603 602.182 -12.3524 602.199C-40.9764 602.523 -69.2769 603.778 -97.1116 605.784V589.57C-69.1993 587.564 -40.8212 586.334 -12.1454 586.024C-10.1844 586.024 -8.30286 585.248 -6.91138 583.867C-5.5199 582.485 -4.73132 580.609 -4.71765 578.648V445.026C-4.73132 443.065 -5.5199 441.189 -6.91138 439.807C-8.30286 438.426 -10.1844 437.65 -12.1454 437.65C-40.8212 437.34 -69.1993 436.11 -97.1116 434.117V417.903C-68.7982 419.948 -40.0059 421.203 -10.8773 421.501C-10.0775 421.511 -9.28351 421.363 -8.54083 421.066C-7.79816 420.769 -7.1214 420.329 -6.54926 419.77C-5.97711 419.211 -5.52081 418.544 -5.20654 417.809C-4.89227 417.073 -4.72607 416.283 -4.71765 415.483V190.762C-37.7932 192.405 -69.044 203.961 -97.1116 223.164V203.56C-92.6592 200.782 -88.1054 198.171 -83.4595 195.731C-80.0821 193.971 -81.6738 188.872 -85.4782 189.209C-89.3862 189.532 -93.2424 189.985 -97.1116 190.335V190.089V164.066C-97.1116 136.477 -74.3884 114.038 -46.4761 114.038H-6.83984C-6.69751 114.038 -6.56805 113.987 -6.41278 113.987C-6.25751 113.987 -6.12811 114.038 -5.97284 114.038C1.81726 114.038 8.13208 107.788 8.13208 100.102V24.8537C8.13208 17.1542 1.81726 10.917 -5.97284 10.917H-414.253C-422.043 10.917 -428.358 17.1542 -428.358 24.8537V100.102C-428.358 107.788 -422.043 114.038 -414.253 114.038L-414.098 114.026H-374.319C-346.407 114.026 -323.684 136.477 -323.684 164.066V183.864L-323.723 184.136V240.854C-352.295 251.594 -379.366 263.797 -404.496 277.462C-424.715 288.368 -444.154 300.661 -462.676 314.251C-463.673 315.002 -464.463 315.994 -464.972 317.134C-465.481 318.274 -465.693 319.525 -465.587 320.769C-465.481 322.013 -465.061 323.21 -464.366 324.247C-463.671 325.284 -462.725 326.128 -461.615 326.7C-422.561 347.728 -375.807 365.65 -323.723 380.143V396.888C-385.953 379.936 -441.001 358.132 -485.063 332.161L-485.14 332.083C-545.584 383.715 -578 444.172 -578 507.748C-578 571.932 -544.963 632.958 -483.38 684.914C-480.986 686.933 -477.557 687.243 -474.827 685.716C-432.59 662.294 -381.229 642.47 -323.723 626.773V643.492C-372.896 657.17 -417.333 673.915 -455.002 693.442C-456.146 694.019 -457.12 694.884 -457.829 695.951C-458.539 697.018 -458.959 698.251 -459.049 699.529C-459.139 700.807 -458.896 702.087 -458.343 703.242C-457.79 704.398 -456.947 705.391 -455.895 706.123C-439.411 717.768 -422.248 728.419 -404.496 738.021C-373.983 754.598 -340.649 769.065 -305.14 781.332C-303.581 781.87 -301.886 781.87 -300.326 781.332C-252.007 900.539 -133.979 985 3.71942 985H11.4448C137.548 985 250.504 906.116 292.535 788.695C292.638 788.385 292.677 788.061 292.768 787.751C335.6 774.202 375.534 757.6 411.547 738.021C430.651 727.7 449.065 716.151 466.673 703.444C467.303 702.983 467.806 702.368 468.135 701.659C468.463 700.95 468.606 700.169 468.55 699.389C468.495 698.61 468.242 697.857 467.817 697.201C467.391 696.546 466.806 696.009 466.116 695.641ZM-125.296 164.079V725.754C-125.296 824.902 -43.668 905.559 56.6713 905.559H66.26C135.193 905.559 197.41 867.812 228.635 807.032C228.972 806.385 229.192 805.712 229.412 805.039L236.309 803.383C198.187 882.189 118.461 932.333 29.0307 932.333H24.2687C-102.469 932.333 -205.59 830.454 -205.59 705.23V183.994C-205.59 183.308 -205.668 182.635 -205.681 181.949C-204.568 133.941 -164.789 95.2232 -115.953 95.2232H-83.2525C-108.227 108.306 -125.309 134.238 -125.309 164.066L-125.296 164.079ZM-20.0649 38.8034V84.0945H-115.953C-136.822 84.0599 -157.19 90.4823 -174.265 102.481C-191.339 114.479 -204.284 131.467 -211.323 151.113C-218.36 131.464 -231.303 114.474 -248.378 102.473C-265.453 90.4722 -285.823 84.0479 -306.693 84.0816H-400.148V38.7905H-20.0649V38.8034ZM11.4448 957.127H3.71942C-161.27 957.127 -295.513 824.488 -295.513 661.466V190.27L-295.487 189.998V164.079C-295.487 134.251 -312.542 108.319 -337.53 95.2362H-306.693C-257.856 95.2362 -218.078 133.967 -216.965 181.962C-216.978 182.648 -217.068 183.321 -217.068 184.007V223.449C-217.068 223.811 -216.939 224.122 -216.861 224.458V705.217C-216.861 836.6 -108.68 943.488 24.2687 943.488H29.0307C125.954 943.488 212.059 887.352 250.336 799.915C253.105 799.203 255.836 798.465 258.579 797.715C215.837 893.823 118.914 957.127 11.4448 957.127Z" fill="white"/>
</g>
<path fill-rule="evenodd" clip-rule="evenodd" d="M492.359 334.595C490.728 333.137 488.676 332.235 486.499 332.019C484.323 331.803 482.133 332.283 480.247 333.391C419.557 368.434 339.327 395.673 248.382 413.181C245.678 413.708 243.29 415.282 241.739 417.56C240.188 419.838 239.6 422.636 240.101 425.345C244.72 451.071 247.218 477.935 247.218 505.614C247.218 536.05 244.241 565.554 238.716 593.608C238.437 594.963 238.431 596.359 238.696 597.716C238.961 599.072 239.493 600.363 240.261 601.513C241.029 602.662 242.018 603.648 243.17 604.413C244.322 605.177 245.614 605.705 246.972 605.966C335.768 622.944 414.42 649.2 474.722 682.91C478.539 685.045 483.262 684.631 486.562 681.758C546.217 630.01 578.18 569.371 578.18 505.614C578.18 443.941 548.274 385.204 492.359 334.595ZM20.2056 583.101C88.1552 583.813 154.461 589.183 216.614 598.681C218.484 599.007 220.409 598.61 221.998 597.569C223.586 596.529 224.719 594.923 225.167 593.078C231.094 565.696 234.29 536.762 234.29 506.831C234.29 479.746 231.638 453.491 226.746 428.451C225.996 424.621 222.165 422.11 218.141 422.718C155.548 432.372 88.7117 437.82 20.2056 438.544C18.2672 438.517 16.3962 439.256 15.0002 440.601C13.6042 441.946 12.7961 443.788 12.752 445.726V575.906C12.752 579.853 16.0776 583.062 20.2056 583.101Z" fill="white"/>
</g>
</g>
<defs>
<radialGradient id="paint0_radial_470_21" cx="0" cy="0" r="1" gradientUnits="userSpaceOnUse" gradientTransform="translate(-1.72257e-05 482) rotate(-40.4048) scale(759.044 910.223)">
<stop stop-color="#D9D9D9"/>
<stop offset="0.733131" stop-color="#D9D9D9" stop-opacity="0"/>
</radialGradient>
</defs>
</svg>
