<svg width="55" height="34" viewBox="0 0 55 34" fill="none" xmlns="http://www.w3.org/2000/svg">
<path d="M19.1999 4.51479C20.2401 3.48319 20.2415 1.80925 19.2031 0.775924C18.1647 -0.257407 16.4796 -0.258816 15.4395 0.772752L19.1999 4.51479ZM0.781074 15.31C-0.2591 16.3417 -0.260519 18.0154 0.777881 19.049C1.81632 20.0822 3.50134 20.0836 4.54151 19.0521L0.781074 15.31ZM4.48225 15.2532C3.41039 14.2539 1.72622 14.3074 0.720539 15.372C-0.285145 16.4369 -0.231528 18.1099 0.840333 19.1089L4.48225 15.2532ZM15.4987 32.772C16.5706 33.7713 18.2547 33.7177 19.2604 32.6532C20.2661 31.5883 20.2125 29.9153 19.1406 28.9163L15.4987 32.772ZM2.66129 14.5373C1.19152 14.5373 3.10013e-06 15.721 3.10013e-06 17.181C3.10013e-06 18.6411 1.19152 19.8248 2.66129 19.8248V14.5373ZM39.4581 17.181V19.8248H39.4662L39.4581 17.181ZM49.6774 29.9103C49.6813 31.3704 50.8764 32.5506 52.3462 32.5467C53.8159 32.5428 55.0039 31.3556 55 29.8955L49.6774 29.9103ZM15.4395 0.772752L0.781074 15.31L4.54151 19.0521L19.1999 4.51479L15.4395 0.772752ZM0.840333 19.1089L15.4987 32.772L19.1406 28.9163L4.48225 15.2532L0.840333 19.1089ZM2.66129 19.8248H39.4581V14.5373H2.66129V19.8248ZM39.4662 19.8248C42.1665 19.8167 44.7597 20.8746 46.6748 22.7661L50.4275 19.0165C47.5111 16.1362 43.5625 14.5249 39.4499 14.5373L39.4662 19.8248ZM46.6748 22.7661C48.5898 24.6577 49.67 27.2274 49.6774 29.9103L55 29.8955C54.9886 25.8104 53.344 21.8968 50.4275 19.0165L46.6748 22.7661Z" fill="white"/>
</svg>
